# Blender 3.3.1
# www.blender.org
mtllib Save.mtl
o 立方体
v -0.200000 -0.200000 0.763977
v -0.200000 0.200000 0.763977
v -0.200000 -0.200000 -0.763977
v -0.200000 0.200000 -0.763977
v 0.200000 -0.200000 0.763977
v 0.200000 0.200000 0.763977
v 0.200000 -0.200000 -0.763977
v 0.200000 0.200000 -0.763977
v -0.269826 0.657751 0.032383
v -0.105796 0.964482 -0.126488
v 0.660045 -0.203307 -0.669993
v 0.824074 0.103424 -0.828864
v -0.073968 0.675833 0.269510
v 0.090061 0.982564 0.110638
v 0.855902 -0.185225 -0.432866
v 1.019932 0.121506 -0.591737
v 0.273068 0.351183 0.035622
v 0.402001 0.465812 0.104336
v 0.563856 -0.257829 0.505949
v 0.692789 -0.143200 0.574663
v 0.086657 0.430332 0.253362
v 0.215590 0.544961 0.322076
v 0.377445 -0.178680 0.723689
v 0.506378 -0.064051 0.792403
v -0.267666 0.351183 0.038713
v -0.407530 0.465812 -0.003519
v -0.644646 -0.257829 -0.365825
v -0.784510 -0.143200 -0.408057
v -0.127330 0.430332 -0.211218
v -0.267194 0.544961 -0.253451
v -0.504310 -0.178680 -0.615756
v -0.644174 -0.064051 -0.657988
v -0.201152 0.889688 -0.027430
v -0.005418 0.981806 0.287899
v -0.627961 -0.345488 0.598337
v -0.432226 -0.253371 0.913666
v -0.449773 1.032628 0.085140
v -0.254039 1.124745 0.400469
v -0.876582 -0.202549 0.710907
v -0.680847 -0.110431 1.026236
vn -1.0000 -0.0000 -0.0000
vn -0.0000 -0.0000 -1.0000
vn 1.0000 -0.0000 -0.0000
vn -0.0000 -0.0000 1.0000
vn -0.0000 -1.0000 -0.0000
vn -0.0000 1.0000 -0.0000
vn -0.6357 -0.0587 -0.7697
vn 0.6418 -0.5943 -0.4848
vn 0.6357 0.0587 0.7697
vn -0.6418 0.5943 0.4848
vn -0.4289 -0.8021 0.4155
vn 0.4289 0.8021 -0.4155
vn 0.6269 -0.2662 -0.7322
vn 0.3535 -0.7404 0.5718
vn -0.6269 0.2662 0.7322
vn -0.3535 0.7404 -0.5718
vn -0.6943 -0.6173 -0.3700
vn 0.6943 0.6173 0.3700
vn -0.4719 -0.2662 0.8405
vn -0.4583 -0.7404 -0.4918
vn 0.4719 0.2662 -0.8405
vn 0.4583 0.7404 0.4918
vn 0.7532 -0.6173 0.2274
vn -0.7532 0.6173 -0.2274
vn 0.8070 -0.4640 -0.3654
vn -0.2946 -0.8525 0.4319
vn -0.8070 0.4640 0.3654
vn 0.2946 0.8525 -0.4319
vn -0.5119 -0.2409 -0.8246
vn 0.5119 0.2409 0.8246
vt 0.375000 0.000000
vt 0.375000 1.000000
vt 0.125000 0.750000
vt 0.625000 0.000000
vt 0.625000 1.000000
vt 0.875000 0.750000
vt 0.375000 0.250000
vt 0.125000 0.500000
vt 0.625000 0.250000
vt 0.875000 0.500000
vt 0.375000 0.750000
vt 0.625000 0.750000
vt 0.375000 0.500000
vt 0.625000 0.500000
vt 0.375000 0.000000
vt 0.375000 1.000000
vt 0.125000 0.750000
vt 0.625000 0.000000
vt 0.625000 1.000000
vt 0.875000 0.750000
vt 0.375000 0.250000
vt 0.125000 0.500000
vt 0.625000 0.250000
vt 0.875000 0.500000
vt 0.375000 0.750000
vt 0.625000 0.750000
vt 0.375000 0.500000
vt 0.625000 0.500000
vt 0.375000 0.000000
vt 0.375000 1.000000
vt 0.125000 0.750000
vt 0.625000 0.000000
vt 0.625000 1.000000
vt 0.875000 0.750000
vt 0.375000 0.250000
vt 0.125000 0.500000
vt 0.625000 0.250000
vt 0.875000 0.500000
vt 0.375000 0.750000
vt 0.625000 0.750000
vt 0.375000 0.500000
vt 0.625000 0.500000
vt 0.375000 0.000000
vt 0.375000 1.000000
vt 0.125000 0.750000
vt 0.625000 0.000000
vt 0.625000 1.000000
vt 0.875000 0.750000
vt 0.375000 0.250000
vt 0.125000 0.500000
vt 0.625000 0.250000
vt 0.875000 0.500000
vt 0.375000 0.750000
vt 0.625000 0.750000
vt 0.375000 0.500000
vt 0.625000 0.500000
vt 0.375000 0.000000
vt 0.375000 1.000000
vt 0.125000 0.750000
vt 0.625000 0.000000
vt 0.625000 1.000000
vt 0.875000 0.750000
vt 0.375000 0.250000
vt 0.125000 0.500000
vt 0.625000 0.250000
vt 0.875000 0.500000
vt 0.375000 0.750000
vt 0.625000 0.750000
vt 0.375000 0.500000
vt 0.625000 0.500000
s 0
usemtl マテリアル.001
f 1/1/1 2/4/1 4/9/1 3/7/1
f 3/7/2 4/9/2 8/14/2 7/13/2
f 7/13/3 8/14/3 6/12/3 5/11/3
f 5/11/4 6/12/4 2/5/4 1/2/4
f 3/8/5 7/13/5 5/11/5 1/3/5
f 8/14/6 4/10/6 2/6/6 6/12/6
usemtl マテリアル.002
f 9/15/7 10/18/7 12/23/7 11/21/7
f 11/21/8 12/23/8 16/28/8 15/27/8
f 15/27/9 16/28/9 14/26/9 13/25/9
f 13/25/10 14/26/10 10/19/10 9/16/10
f 11/22/11 15/27/11 13/25/11 9/17/11
f 16/28/12 12/24/12 10/20/12 14/26/12
usemtl マテリアル.003
f 17/29/13 18/32/13 20/37/13 19/35/13
f 19/35/14 20/37/14 24/42/14 23/41/14
f 23/41/15 24/42/15 22/40/15 21/39/15
f 21/39/16 22/40/16 18/33/16 17/30/16
f 19/36/17 23/41/17 21/39/17 17/31/17
f 24/42/18 20/38/18 18/34/18 22/40/18
usemtl マテリアル.004
f 25/43/19 26/46/19 28/51/19 27/49/19
f 27/49/20 28/51/20 32/56/20 31/55/20
f 31/55/21 32/56/21 30/54/21 29/53/21
f 29/53/22 30/54/22 26/47/22 25/44/22
f 27/50/23 31/55/23 29/53/23 25/45/23
f 32/56/24 28/52/24 26/48/24 30/54/24
usemtl マテリアル.005
f 33/57/25 34/60/25 36/65/25 35/63/25
f 35/63/26 36/65/26 40/70/26 39/69/26
f 39/69/27 40/70/27 38/68/27 37/67/27
f 37/67/28 38/68/28 34/61/28 33/58/28
f 35/64/29 39/69/29 37/67/29 33/59/29
f 40/70/30 36/66/30 34/62/30 38/68/30
